<?xml version="1.0" encoding="UTF-8" standalone="no"?>
<!DOCTYPE svg PUBLIC "-//W3C//DTD SVG 1.1//EN"
 "http://www.w3.org/Graphics/SVG/1.1/DTD/svg11.dtd">
<!-- Generated by graphviz version 2.43.0 (0)
 -->
<!-- Title: sourcetree Pages: 1 -->
<svg width="1102pt" height="260pt"
 viewBox="0.00 0.00 1101.50 260.00" xmlns="http://www.w3.org/2000/svg" xmlns:xlink="http://www.w3.org/1999/xlink">
<g id="graph0" class="graph" transform="scale(1 1) rotate(0) translate(4 256)">
<title>sourcetree</title>
<polygon fill="white" stroke="transparent" points="-4,4 -4,-256 1097.5,-256 1097.5,4 -4,4"/>
<!-- MulleScion -->
<g id="node1" class="node">
<title>MulleScion</title>
<polygon fill="yellow" stroke="black" points="795.5,-252 699.5,-252 699.5,-216 795.5,-216 795.5,-252"/>
<text text-anchor="middle" x="747.5" y="-230.3" font-family="Times,serif" font-size="14.00">MulleScion</text>
</g>
<!-- MulleFoundation -->
<g id="node6" class="node">
<title>MulleFoundation</title>
<g id="a_node6"><a xlink:href="https://github.com/MulleFoundation/MulleFoundation" xlink:title="MulleFoundation">
<polygon fill="lightgrey" stroke="black" points="554,-180 417,-180 417,-144 554,-144 554,-180"/>
<text text-anchor="middle" x="485.5" y="-158.3" font-family="Times,serif" font-size="14.00">MulleFoundation</text>
</a>
</g>
</g>
<!-- MulleScion&#45;&gt;MulleFoundation -->
<g id="edge12" class="edge">
<title>MulleScion&#45;&gt;MulleFoundation</title>
<path fill="none" stroke="black" d="M699.45,-220.16C660.22,-209.68 604.14,-194.7 559.24,-182.7"/>
<polygon fill="black" stroke="black" points="560.11,-179.31 549.55,-180.11 558.3,-186.07 560.11,-179.31"/>
</g>
<!-- MulleObjCHTTPFoundation -->
<g id="node10" class="node">
<title>MulleObjCHTTPFoundation</title>
<g id="a_node10"><a xlink:href="https://github.com/MulleWeb/MulleObjCHTTPFoundation" xlink:title="MulleObjCHTTPFoundation">
<polygon fill="lightgrey" stroke="black" points="854,-180 641,-180 641,-144 854,-144 854,-180"/>
<text text-anchor="middle" x="747.5" y="-158.3" font-family="Times,serif" font-size="14.00">MulleObjCHTTPFoundation</text>
</a>
</g>
</g>
<!-- MulleScion&#45;&gt;MulleObjCHTTPFoundation -->
<g id="edge13" class="edge">
<title>MulleScion&#45;&gt;MulleObjCHTTPFoundation</title>
<path fill="none" stroke="black" d="M747.5,-215.7C747.5,-207.98 747.5,-198.71 747.5,-190.11"/>
<polygon fill="black" stroke="black" points="751,-190.1 747.5,-180.1 744,-190.1 751,-190.1"/>
</g>
<!-- MulleObjCInetOSFoundation -->
<g id="node12" class="node">
<title>MulleObjCInetOSFoundation</title>
<g id="a_node12"><a xlink:href="https://github.com/MulleFoundation/MulleObjCInetOSFoundation" xlink:title="MulleObjCInetOSFoundation">
<polygon fill="lightgrey" stroke="black" points="1093.5,-180 871.5,-180 871.5,-144 1093.5,-144 1093.5,-180"/>
<text text-anchor="middle" x="982.5" y="-158.3" font-family="Times,serif" font-size="14.00">MulleObjCInetOSFoundation</text>
</a>
</g>
</g>
<!-- MulleScion&#45;&gt;MulleObjCInetOSFoundation -->
<g id="edge14" class="edge">
<title>MulleScion&#45;&gt;MulleObjCInetOSFoundation</title>
<path fill="none" stroke="black" d="M795.62,-218.67C830.14,-208.38 877.09,-194.4 915.3,-183.02"/>
<polygon fill="black" stroke="black" points="916.74,-186.24 925.32,-180.03 914.74,-179.53 916.74,-186.24"/>
</g>
<!-- BSD -->
<g id="node2" class="node">
<title>BSD</title>
<g id="a_node2"><a xlink:href="https://unknown.com/" xlink:title="BSD">
<polygon fill="lightgrey" stroke="black" points="368.5,-36 314.5,-36 314.5,0 368.5,0 368.5,-36"/>
<text text-anchor="middle" x="341.5" y="-14.3" font-family="Times,serif" font-size="14.00">BSD</text>
</a>
</g>
</g>
<!-- Darwin -->
<g id="node3" class="node">
<title>Darwin</title>
<g id="a_node3"><a xlink:href="https://unknown.com/" xlink:title="Darwin">
<polygon fill="lightgrey" stroke="black" points="454.5,-36 386.5,-36 386.5,0 454.5,0 454.5,-36"/>
<text text-anchor="middle" x="420.5" y="-14.3" font-family="Times,serif" font-size="14.00">Darwin</text>
</a>
</g>
</g>
<!-- FreeBSD -->
<g id="node4" class="node">
<title>FreeBSD</title>
<g id="a_node4"><a xlink:href="https://unknown.com/" xlink:title="FreeBSD">
<polygon fill="lightgrey" stroke="black" points="554,-36 473,-36 473,0 554,0 554,-36"/>
<text text-anchor="middle" x="513.5" y="-14.3" font-family="Times,serif" font-size="14.00">FreeBSD</text>
</a>
</g>
</g>
<!-- Linux -->
<g id="node5" class="node">
<title>Linux</title>
<g id="a_node5"><a xlink:href="https://unknown.com/" xlink:title="Linux">
<polygon fill="lightgrey" stroke="black" points="628.5,-36 572.5,-36 572.5,0 628.5,0 628.5,-36"/>
<text text-anchor="middle" x="600.5" y="-14.3" font-family="Times,serif" font-size="14.00">Linux</text>
</a>
</g>
</g>
<!-- MulleObjCCalendarFoundation -->
<g id="node7" class="node">
<title>MulleObjCCalendarFoundation</title>
<g id="a_node7"><a xlink:href="https://github.com/MulleFoundation/MulleObjCCalendarFoundation" xlink:title="MulleObjCCalendarFoundation">
<polygon fill="lightgrey" stroke="black" points="237,-108 0,-108 0,-72 237,-72 237,-108"/>
<text text-anchor="middle" x="118.5" y="-86.3" font-family="Times,serif" font-size="14.00">MulleObjCCalendarFoundation</text>
</a>
</g>
</g>
<!-- MulleFoundation&#45;&gt;MulleObjCCalendarFoundation -->
<g id="edge1" class="edge">
<title>MulleFoundation&#45;&gt;MulleObjCCalendarFoundation</title>
<path fill="none" stroke="black" d="M416.9,-147.92C360.87,-137.23 280.93,-121.98 217.89,-109.96"/>
<polygon fill="black" stroke="black" points="218.41,-106.49 207.93,-108.06 217.09,-113.37 218.41,-106.49"/>
</g>
<!-- MulleObjCDecimalFoundation -->
<g id="node8" class="node">
<title>MulleObjCDecimalFoundation</title>
<g id="a_node8"><a xlink:href="https://github.com/MulleFoundation/MulleObjCDecimalFoundation" xlink:title="MulleObjCDecimalFoundation">
<polygon fill="lightgrey" stroke="black" points="485.5,-108 255.5,-108 255.5,-72 485.5,-72 485.5,-108"/>
<text text-anchor="middle" x="370.5" y="-86.3" font-family="Times,serif" font-size="14.00">MulleObjCDecimalFoundation</text>
</a>
</g>
</g>
<!-- MulleFoundation&#45;&gt;MulleObjCDecimalFoundation -->
<g id="edge2" class="edge">
<title>MulleFoundation&#45;&gt;MulleObjCDecimalFoundation</title>
<path fill="none" stroke="black" d="M457.37,-143.88C442.33,-134.72 423.63,-123.34 407.44,-113.48"/>
<polygon fill="black" stroke="black" points="409.1,-110.4 398.74,-108.19 405.46,-116.38 409.1,-110.4"/>
</g>
<!-- MulleObjCOSFoundation -->
<g id="node9" class="node">
<title>MulleObjCOSFoundation</title>
<g id="a_node9"><a xlink:href="https://github.com/MulleFoundation/MulleObjCOSFoundation" xlink:title="MulleObjCOSFoundation">
<polygon fill="lightgrey" stroke="black" points="697.5,-108 503.5,-108 503.5,-72 697.5,-72 697.5,-108"/>
<text text-anchor="middle" x="600.5" y="-86.3" font-family="Times,serif" font-size="14.00">MulleObjCOSFoundation</text>
</a>
</g>
</g>
<!-- MulleFoundation&#45;&gt;MulleObjCOSFoundation -->
<g id="edge3" class="edge">
<title>MulleFoundation&#45;&gt;MulleObjCOSFoundation</title>
<path fill="none" stroke="black" d="M513.63,-143.88C528.67,-134.72 547.37,-123.34 563.56,-113.48"/>
<polygon fill="black" stroke="black" points="565.54,-116.38 572.26,-108.19 561.9,-110.4 565.54,-116.38"/>
</g>
<!-- MulleObjCOSFoundation&#45;&gt;BSD -->
<g id="edge5" class="edge">
<title>MulleObjCOSFoundation&#45;&gt;BSD</title>
<path fill="none" stroke="black" d="M510.02,-71.97C471.56,-63.66 426.28,-52.48 378.38,-35.97"/>
<polygon fill="black" stroke="black" points="379.37,-32.61 368.77,-32.6 377.05,-39.21 379.37,-32.61"/>
</g>
<!-- MulleObjCOSFoundation&#45;&gt;Darwin -->
<g id="edge6" class="edge">
<title>MulleObjCOSFoundation&#45;&gt;Darwin</title>
<path fill="none" stroke="black" d="M556.04,-71.9C531.42,-62.4 500.04,-50.27 464.41,-36.34"/>
<polygon fill="black" stroke="black" points="465.35,-32.95 454.76,-32.57 462.8,-39.47 465.35,-32.95"/>
</g>
<!-- MulleObjCOSFoundation&#45;&gt;FreeBSD -->
<g id="edge7" class="edge">
<title>MulleObjCOSFoundation&#45;&gt;FreeBSD</title>
<path fill="none" stroke="black" d="M578.99,-71.7C568.04,-62.88 554.55,-52.03 542.68,-42.47"/>
<polygon fill="black" stroke="black" points="544.74,-39.65 534.76,-36.1 540.36,-45.1 544.74,-39.65"/>
</g>
<!-- MulleObjCOSFoundation&#45;&gt;Linux -->
<g id="edge8" class="edge">
<title>MulleObjCOSFoundation&#45;&gt;Linux</title>
<path fill="none" stroke="black" d="M600.5,-71.7C600.5,-63.98 600.5,-54.71 600.5,-46.11"/>
<polygon fill="black" stroke="black" points="604,-46.1 600.5,-36.1 597,-46.1 604,-46.1"/>
</g>
<!-- OSBase -->
<g id="node13" class="node">
<title>OSBase</title>
<g id="a_node13"><a xlink:href="https://unknown.com/" xlink:title="OSBase">
<polygon fill="lightgrey" stroke="black" points="718.5,-36 646.5,-36 646.5,0 718.5,0 718.5,-36"/>
<text text-anchor="middle" x="682.5" y="-14.3" font-family="Times,serif" font-size="14.00">OSBase</text>
</a>
</g>
</g>
<!-- MulleObjCOSFoundation&#45;&gt;OSBase -->
<g id="edge9" class="edge">
<title>MulleObjCOSFoundation&#45;&gt;OSBase</title>
<path fill="none" stroke="black" d="M620.77,-71.7C631,-62.97 643.56,-52.24 654.68,-42.75"/>
<polygon fill="black" stroke="black" points="657.13,-45.26 662.46,-36.1 652.59,-39.94 657.13,-45.26"/>
</g>
<!-- Posix -->
<g id="node14" class="node">
<title>Posix</title>
<g id="a_node14"><a xlink:href="https://unknown.com/" xlink:title="Posix">
<polygon fill="lightgrey" stroke="black" points="790.5,-36 736.5,-36 736.5,0 790.5,0 790.5,-36"/>
<text text-anchor="middle" x="763.5" y="-14.3" font-family="Times,serif" font-size="14.00">Posix</text>
</a>
</g>
</g>
<!-- MulleObjCOSFoundation&#45;&gt;Posix -->
<g id="edge10" class="edge">
<title>MulleObjCOSFoundation&#45;&gt;Posix</title>
<path fill="none" stroke="black" d="M642.75,-71.93C665.43,-62.65 694.02,-50.73 727.01,-36.13"/>
<polygon fill="black" stroke="black" points="728.72,-39.2 736.43,-31.94 725.87,-32.81 728.72,-39.2"/>
</g>
<!-- Windows -->
<g id="node15" class="node">
<title>Windows</title>
<g id="a_node15"><a xlink:href="https://unknown.com/" xlink:title="Windows">
<polygon fill="lightgrey" stroke="black" points="890,-36 809,-36 809,0 890,0 890,-36"/>
<text text-anchor="middle" x="849.5" y="-14.3" font-family="Times,serif" font-size="14.00">Windows</text>
</a>
</g>
</g>
<!-- MulleObjCOSFoundation&#45;&gt;Windows -->
<g id="edge11" class="edge">
<title>MulleObjCOSFoundation&#45;&gt;Windows</title>
<path fill="none" stroke="black" d="M668.98,-71.98C705.1,-62.72 750.31,-50.67 799.11,-36.02"/>
<polygon fill="black" stroke="black" points="800.36,-39.3 808.91,-33.05 798.33,-32.6 800.36,-39.3"/>
</g>
<!-- MulleObjCInetFoundation -->
<g id="node11" class="node">
<title>MulleObjCInetFoundation</title>
<g id="a_node11"><a xlink:href="https://github.com/MulleWeb/MulleObjCInetFoundation" xlink:title="MulleObjCInetFoundation">
<polygon fill="lightgrey" stroke="black" points="917,-108 716,-108 716,-72 917,-72 917,-108"/>
<text text-anchor="middle" x="816.5" y="-86.3" font-family="Times,serif" font-size="14.00">MulleObjCInetFoundation</text>
</a>
</g>
</g>
<!-- MulleObjCHTTPFoundation&#45;&gt;MulleObjCInetFoundation -->
<g id="edge4" class="edge">
<title>MulleObjCHTTPFoundation&#45;&gt;MulleObjCInetFoundation</title>
<path fill="none" stroke="black" d="M764.56,-143.7C773,-135.14 783.32,-124.66 792.54,-115.3"/>
<polygon fill="black" stroke="black" points="795.11,-117.68 799.64,-108.1 790.13,-112.77 795.11,-117.68"/>
</g>
</g>
</svg>
