<?xml version="1.0" encoding="UTF-8" standalone="no"?>
<!DOCTYPE svg PUBLIC "-//W3C//DTD SVG 1.1//EN"
 "http://www.w3.org/Graphics/SVG/1.1/DTD/svg11.dtd">
<!-- Generated by graphviz version 2.43.0 (0)
 -->
<!-- Title: sourcetree Pages: 1 -->
<svg width="1102pt" height="188pt"
 viewBox="0.00 0.00 1101.50 188.00" xmlns="http://www.w3.org/2000/svg" xmlns:xlink="http://www.w3.org/1999/xlink">
<g id="graph0" class="graph" transform="scale(1 1) rotate(0) translate(4 184)">
<title>sourcetree</title>
<polygon fill="white" stroke="transparent" points="-4,4 -4,-184 1097.5,-184 1097.5,4 -4,4"/>
<!-- MulleScion -->
<g id="node1" class="node">
<title>MulleScion</title>
<polygon fill="yellow" stroke="black" points="795.5,-180 699.5,-180 699.5,-144 795.5,-144 795.5,-180"/>
<text text-anchor="middle" x="747.5" y="-158.3" font-family="Times,serif" font-size="14.00">MulleScion</text>
</g>
<!-- MulleFoundation -->
<g id="node2" class="node">
<title>MulleFoundation</title>
<g id="a_node2"><a xlink:href="https://github.com/MulleFoundation/MulleFoundation" xlink:title="MulleFoundation">
<polygon fill="lightgrey" stroke="black" points="554,-108 417,-108 417,-72 554,-72 554,-108"/>
<text text-anchor="middle" x="485.5" y="-86.3" font-family="Times,serif" font-size="14.00">MulleFoundation</text>
</a>
</g>
</g>
<!-- MulleScion&#45;&gt;MulleFoundation -->
<g id="edge5" class="edge">
<title>MulleScion&#45;&gt;MulleFoundation</title>
<path fill="none" stroke="black" d="M699.45,-148.16C660.22,-137.68 604.14,-122.7 559.24,-110.7"/>
<polygon fill="black" stroke="black" points="560.11,-107.31 549.55,-108.11 558.3,-114.07 560.11,-107.31"/>
</g>
<!-- MulleObjCHTTPFoundation -->
<g id="node6" class="node">
<title>MulleObjCHTTPFoundation</title>
<g id="a_node6"><a xlink:href="https://github.com/MulleWeb/MulleObjCHTTPFoundation" xlink:title="MulleObjCHTTPFoundation">
<polygon fill="lightgrey" stroke="black" points="854,-108 641,-108 641,-72 854,-72 854,-108"/>
<text text-anchor="middle" x="747.5" y="-86.3" font-family="Times,serif" font-size="14.00">MulleObjCHTTPFoundation</text>
</a>
</g>
</g>
<!-- MulleScion&#45;&gt;MulleObjCHTTPFoundation -->
<g id="edge6" class="edge">
<title>MulleScion&#45;&gt;MulleObjCHTTPFoundation</title>
<path fill="none" stroke="black" d="M747.5,-143.7C747.5,-135.98 747.5,-126.71 747.5,-118.11"/>
<polygon fill="black" stroke="black" points="751,-118.1 747.5,-108.1 744,-118.1 751,-118.1"/>
</g>
<!-- MulleObjCInetOSFoundation -->
<g id="node8" class="node">
<title>MulleObjCInetOSFoundation</title>
<g id="a_node8"><a xlink:href="https://github.com/MulleFoundation/MulleObjCInetOSFoundation" xlink:title="MulleObjCInetOSFoundation">
<polygon fill="lightgrey" stroke="black" points="1093.5,-108 871.5,-108 871.5,-72 1093.5,-72 1093.5,-108"/>
<text text-anchor="middle" x="982.5" y="-86.3" font-family="Times,serif" font-size="14.00">MulleObjCInetOSFoundation</text>
</a>
</g>
</g>
<!-- MulleScion&#45;&gt;MulleObjCInetOSFoundation -->
<g id="edge7" class="edge">
<title>MulleScion&#45;&gt;MulleObjCInetOSFoundation</title>
<path fill="none" stroke="black" d="M795.62,-146.67C830.14,-136.38 877.09,-122.4 915.3,-111.02"/>
<polygon fill="black" stroke="black" points="916.74,-114.24 925.32,-108.03 914.74,-107.53 916.74,-114.24"/>
</g>
<!-- MulleObjCCalendarFoundation -->
<g id="node3" class="node">
<title>MulleObjCCalendarFoundation</title>
<g id="a_node3"><a xlink:href="https://github.com/MulleFoundation/MulleObjCCalendarFoundation" xlink:title="MulleObjCCalendarFoundation">
<polygon fill="lightgrey" stroke="black" points="237,-36 0,-36 0,0 237,0 237,-36"/>
<text text-anchor="middle" x="118.5" y="-14.3" font-family="Times,serif" font-size="14.00">MulleObjCCalendarFoundation</text>
</a>
</g>
</g>
<!-- MulleFoundation&#45;&gt;MulleObjCCalendarFoundation -->
<g id="edge1" class="edge">
<title>MulleFoundation&#45;&gt;MulleObjCCalendarFoundation</title>
<path fill="none" stroke="black" d="M416.9,-75.92C360.87,-65.23 280.93,-49.98 217.89,-37.96"/>
<polygon fill="black" stroke="black" points="218.41,-34.49 207.93,-36.06 217.09,-41.37 218.41,-34.49"/>
</g>
<!-- MulleObjCDecimalFoundation -->
<g id="node4" class="node">
<title>MulleObjCDecimalFoundation</title>
<g id="a_node4"><a xlink:href="https://github.com/MulleFoundation/MulleObjCDecimalFoundation" xlink:title="MulleObjCDecimalFoundation">
<polygon fill="lightgrey" stroke="black" points="485.5,-36 255.5,-36 255.5,0 485.5,0 485.5,-36"/>
<text text-anchor="middle" x="370.5" y="-14.3" font-family="Times,serif" font-size="14.00">MulleObjCDecimalFoundation</text>
</a>
</g>
</g>
<!-- MulleFoundation&#45;&gt;MulleObjCDecimalFoundation -->
<g id="edge2" class="edge">
<title>MulleFoundation&#45;&gt;MulleObjCDecimalFoundation</title>
<path fill="none" stroke="black" d="M457.37,-71.88C442.33,-62.72 423.63,-51.34 407.44,-41.48"/>
<polygon fill="black" stroke="black" points="409.1,-38.4 398.74,-36.19 405.46,-44.38 409.1,-38.4"/>
</g>
<!-- MulleObjCOSFoundation -->
<g id="node5" class="node">
<title>MulleObjCOSFoundation</title>
<g id="a_node5"><a xlink:href="https://github.com/MulleFoundation/MulleObjCOSFoundation" xlink:title="MulleObjCOSFoundation">
<polygon fill="lightgrey" stroke="black" points="697.5,-36 503.5,-36 503.5,0 697.5,0 697.5,-36"/>
<text text-anchor="middle" x="600.5" y="-14.3" font-family="Times,serif" font-size="14.00">MulleObjCOSFoundation</text>
</a>
</g>
</g>
<!-- MulleFoundation&#45;&gt;MulleObjCOSFoundation -->
<g id="edge3" class="edge">
<title>MulleFoundation&#45;&gt;MulleObjCOSFoundation</title>
<path fill="none" stroke="black" d="M513.63,-71.88C528.67,-62.72 547.37,-51.34 563.56,-41.48"/>
<polygon fill="black" stroke="black" points="565.54,-44.38 572.26,-36.19 561.9,-38.4 565.54,-44.38"/>
</g>
<!-- MulleObjCInetFoundation -->
<g id="node7" class="node">
<title>MulleObjCInetFoundation</title>
<g id="a_node7"><a xlink:href="https://github.com/MulleWeb/MulleObjCInetFoundation" xlink:title="MulleObjCInetFoundation">
<polygon fill="lightgrey" stroke="black" points="917,-36 716,-36 716,0 917,0 917,-36"/>
<text text-anchor="middle" x="816.5" y="-14.3" font-family="Times,serif" font-size="14.00">MulleObjCInetFoundation</text>
</a>
</g>
</g>
<!-- MulleObjCHTTPFoundation&#45;&gt;MulleObjCInetFoundation -->
<g id="edge4" class="edge">
<title>MulleObjCHTTPFoundation&#45;&gt;MulleObjCInetFoundation</title>
<path fill="none" stroke="black" d="M764.56,-71.7C773,-63.14 783.32,-52.66 792.54,-43.3"/>
<polygon fill="black" stroke="black" points="795.11,-45.68 799.64,-36.1 790.13,-40.77 795.11,-45.68"/>
</g>
</g>
</svg>
