<?xml version="1.0" encoding="UTF-8" standalone="no"?>
<!DOCTYPE svg PUBLIC "-//W3C//DTD SVG 1.1//EN"
 "http://www.w3.org/Graphics/SVG/1.1/DTD/svg11.dtd">
<!-- Generated by graphviz version 2.43.0 (0)
 -->
<!-- Title: sourcetree Pages: 1 -->
<svg width="2200pt" height="260pt"
 viewBox="0.00 0.00 2200.00 260.00" xmlns="http://www.w3.org/2000/svg" xmlns:xlink="http://www.w3.org/1999/xlink">
<g id="graph0" class="graph" transform="scale(1 1) rotate(0) translate(4 256)">
<title>sourcetree</title>
<polygon fill="white" stroke="transparent" points="-4,4 -4,-256 2196,-256 2196,4 -4,4"/>
<!-- MulleScion -->
<g id="node1" class="node">
<title>MulleScion</title>
<polygon fill="yellow" stroke="black" points="1875.5,-252 1779.5,-252 1779.5,-216 1875.5,-216 1875.5,-252"/>
<text text-anchor="middle" x="1827.5" y="-230.3" font-family="Times,serif" font-size="14.00">MulleScion</text>
</g>
<!-- MulleFoundation -->
<g id="node2" class="node">
<title>MulleFoundation</title>
<polygon fill="lightgrey" stroke="black" points="1038,-180 901,-180 901,-144 1038,-144 1038,-180"/>
<text text-anchor="middle" x="969.5" y="-158.3" font-family="Times,serif" font-size="14.00">MulleFoundation</text>
</g>
<!-- MulleScion&#45;&gt;MulleFoundation -->
<g id="edge18" class="edge">
<title>MulleScion&#45;&gt;MulleFoundation</title>
<path fill="none" stroke="black" d="M1779.22,-229.06C1637.73,-217.52 1223.04,-183.69 1048.44,-169.44"/>
<polygon fill="black" stroke="black" points="1048.54,-165.94 1038.29,-168.61 1047.97,-172.91 1048.54,-165.94"/>
</g>
<!-- MulleObjCHTTPFoundation -->
<g id="node10" class="node">
<title>MulleObjCHTTPFoundation</title>
<polygon fill="lightgrey" stroke="black" points="1817,-180 1604,-180 1604,-144 1817,-144 1817,-180"/>
<text text-anchor="middle" x="1710.5" y="-158.3" font-family="Times,serif" font-size="14.00">MulleObjCHTTPFoundation</text>
</g>
<!-- MulleScion&#45;&gt;MulleObjCHTTPFoundation -->
<g id="edge19" class="edge">
<title>MulleScion&#45;&gt;MulleObjCHTTPFoundation</title>
<path fill="none" stroke="black" d="M1798.88,-215.88C1783.58,-206.72 1764.56,-195.34 1748.08,-185.48"/>
<polygon fill="black" stroke="black" points="1749.61,-182.32 1739.23,-180.19 1746.02,-188.33 1749.61,-182.32"/>
</g>
<!-- MulleObjCInetOSFoundation -->
<g id="node21" class="node">
<title>MulleObjCInetOSFoundation</title>
<polygon fill="lightgrey" stroke="black" points="2056.5,-180 1834.5,-180 1834.5,-144 2056.5,-144 2056.5,-180"/>
<text text-anchor="middle" x="1945.5" y="-158.3" font-family="Times,serif" font-size="14.00">MulleObjCInetOSFoundation</text>
</g>
<!-- MulleScion&#45;&gt;MulleObjCInetOSFoundation -->
<g id="edge20" class="edge">
<title>MulleScion&#45;&gt;MulleObjCInetOSFoundation</title>
<path fill="none" stroke="black" d="M1856.37,-215.88C1871.79,-206.72 1890.98,-195.34 1907.6,-185.48"/>
<polygon fill="black" stroke="black" points="1909.71,-188.3 1916.52,-180.19 1906.14,-182.28 1909.71,-188.3"/>
</g>
<!-- mulle&#45;objc&#45;list -->
<g id="node22" class="node">
<title>mulle&#45;objc&#45;list</title>
<polygon fill="lightgrey" stroke="black" points="2192,-180 2075,-180 2075,-144 2192,-144 2192,-180"/>
<text text-anchor="middle" x="2133.5" y="-158.3" font-family="Times,serif" font-size="14.00">mulle&#45;objc&#45;list</text>
</g>
<!-- MulleScion&#45;&gt;mulle&#45;objc&#45;list -->
<g id="edge21" class="edge">
<title>MulleScion&#45;&gt;mulle&#45;objc&#45;list</title>
<path fill="none" stroke="black" d="M1875.9,-222.61C1921.89,-212.64 1993.23,-196.97 2064.82,-180.13"/>
<polygon fill="black" stroke="black" points="2065.99,-183.45 2074.92,-177.75 2064.38,-176.64 2065.99,-183.45"/>
</g>
<!-- MulleObjCArchiverFoundation -->
<g id="node3" class="node">
<title>MulleObjCArchiverFoundation</title>
<polygon fill="lightgrey" stroke="black" points="233,-108 0,-108 0,-72 233,-72 233,-108"/>
<text text-anchor="middle" x="116.5" y="-86.3" font-family="Times,serif" font-size="14.00">MulleObjCArchiverFoundation</text>
</g>
<!-- MulleFoundation&#45;&gt;MulleObjCArchiverFoundation -->
<g id="edge1" class="edge">
<title>MulleFoundation&#45;&gt;MulleObjCArchiverFoundation</title>
<path fill="none" stroke="black" d="M900.87,-157.44C773.39,-150.51 491.19,-133.69 243.52,-108.18"/>
<polygon fill="black" stroke="black" points="243.55,-104.66 233.24,-107.11 242.83,-111.62 243.55,-104.66"/>
</g>
<!-- MulleObjCCalendarFoundation -->
<g id="node4" class="node">
<title>MulleObjCCalendarFoundation</title>
<polygon fill="lightgrey" stroke="black" points="488,-108 251,-108 251,-72 488,-72 488,-108"/>
<text text-anchor="middle" x="369.5" y="-86.3" font-family="Times,serif" font-size="14.00">MulleObjCCalendarFoundation</text>
</g>
<!-- MulleFoundation&#45;&gt;MulleObjCCalendarFoundation -->
<g id="edge2" class="edge">
<title>MulleFoundation&#45;&gt;MulleObjCCalendarFoundation</title>
<path fill="none" stroke="black" d="M900.66,-153.71C810.77,-144.09 648.24,-126.37 498.35,-108.09"/>
<polygon fill="black" stroke="black" points="498.39,-104.57 488.04,-106.83 497.54,-111.52 498.39,-104.57"/>
</g>
<!-- MulleObjCDecimalFoundation -->
<g id="node5" class="node">
<title>MulleObjCDecimalFoundation</title>
<polygon fill="lightgrey" stroke="black" points="736.5,-108 506.5,-108 506.5,-72 736.5,-72 736.5,-108"/>
<text text-anchor="middle" x="621.5" y="-86.3" font-family="Times,serif" font-size="14.00">MulleObjCDecimalFoundation</text>
</g>
<!-- MulleFoundation&#45;&gt;MulleObjCDecimalFoundation -->
<g id="edge3" class="edge">
<title>MulleFoundation&#45;&gt;MulleObjCDecimalFoundation</title>
<path fill="none" stroke="black" d="M900.75,-147.17C847.94,-136.55 774.42,-121.76 716.08,-110.02"/>
<polygon fill="black" stroke="black" points="716.6,-106.56 706.11,-108.02 715.22,-113.42 716.6,-106.56"/>
</g>
<!-- MulleObjCKVCFoundation -->
<g id="node6" class="node">
<title>MulleObjCKVCFoundation</title>
<polygon fill="lightgrey" stroke="black" points="958,-108 755,-108 755,-72 958,-72 958,-108"/>
<text text-anchor="middle" x="856.5" y="-86.3" font-family="Times,serif" font-size="14.00">MulleObjCKVCFoundation</text>
</g>
<!-- MulleFoundation&#45;&gt;MulleObjCKVCFoundation -->
<g id="edge4" class="edge">
<title>MulleFoundation&#45;&gt;MulleObjCKVCFoundation</title>
<path fill="none" stroke="black" d="M941.86,-143.88C927.08,-134.72 908.71,-123.34 892.8,-113.48"/>
<polygon fill="black" stroke="black" points="894.59,-110.48 884.25,-108.19 890.91,-116.43 894.59,-110.48"/>
</g>
<!-- MulleObjCMathFoundation -->
<g id="node7" class="node">
<title>MulleObjCMathFoundation</title>
<polygon fill="lightgrey" stroke="black" points="1186.5,-108 976.5,-108 976.5,-72 1186.5,-72 1186.5,-108"/>
<text text-anchor="middle" x="1081.5" y="-86.3" font-family="Times,serif" font-size="14.00">MulleObjCMathFoundation</text>
</g>
<!-- MulleFoundation&#45;&gt;MulleObjCMathFoundation -->
<g id="edge5" class="edge">
<title>MulleFoundation&#45;&gt;MulleObjCMathFoundation</title>
<path fill="none" stroke="black" d="M996.9,-143.88C1011.41,-134.81 1029.42,-123.55 1045.09,-113.76"/>
<polygon fill="black" stroke="black" points="1047.37,-116.46 1054,-108.19 1043.66,-110.52 1047.37,-116.46"/>
</g>
<!-- MulleObjCOSFoundation -->
<g id="node8" class="node">
<title>MulleObjCOSFoundation</title>
<polygon fill="lightgrey" stroke="black" points="1398.5,-108 1204.5,-108 1204.5,-72 1398.5,-72 1398.5,-108"/>
<text text-anchor="middle" x="1301.5" y="-86.3" font-family="Times,serif" font-size="14.00">MulleObjCOSFoundation</text>
</g>
<!-- MulleFoundation&#45;&gt;MulleObjCOSFoundation -->
<g id="edge6" class="edge">
<title>MulleFoundation&#45;&gt;MulleObjCOSFoundation</title>
<path fill="none" stroke="black" d="M1038.29,-146.5C1088.27,-135.96 1156.39,-121.6 1210.81,-110.12"/>
<polygon fill="black" stroke="black" points="1211.74,-113.5 1220.81,-108.01 1210.3,-106.65 1211.74,-113.5"/>
</g>
<!-- MulleObjCUnicodeFoundation -->
<g id="node9" class="node">
<title>MulleObjCUnicodeFoundation</title>
<polygon fill="lightgrey" stroke="black" points="1647,-108 1416,-108 1416,-72 1647,-72 1647,-108"/>
<text text-anchor="middle" x="1531.5" y="-86.3" font-family="Times,serif" font-size="14.00">MulleObjCUnicodeFoundation</text>
</g>
<!-- MulleFoundation&#45;&gt;MulleObjCUnicodeFoundation -->
<g id="edge7" class="edge">
<title>MulleFoundation&#45;&gt;MulleObjCUnicodeFoundation</title>
<path fill="none" stroke="black" d="M1038.2,-153.03C1122.37,-143.18 1269.62,-125.72 1405.8,-108.21"/>
<polygon fill="black" stroke="black" points="1406.53,-111.64 1416,-106.9 1405.63,-104.7 1406.53,-111.64"/>
</g>
<!-- src/BSD -->
<g id="node14" class="node">
<title>src/BSD</title>
<polygon fill="lightgrey" stroke="black" points="1003.5,-36 929.5,-36 929.5,0 1003.5,0 1003.5,-36"/>
<text text-anchor="middle" x="966.5" y="-14.3" font-family="Times,serif" font-size="14.00">src/BSD</text>
</g>
<!-- MulleObjCOSFoundation&#45;&gt;src/BSD -->
<g id="edge11" class="edge">
<title>MulleObjCOSFoundation&#45;&gt;src/BSD</title>
<path fill="none" stroke="black" d="M1204.29,-72.88C1135.24,-61.09 1048.77,-45.55 1013.5,-36 1013.4,-35.97 1013.3,-35.94 1013.19,-35.92"/>
<polygon fill="black" stroke="black" points="1014.1,-32.54 1003.52,-33.03 1012.1,-39.24 1014.1,-32.54"/>
</g>
<!-- src/Darwin -->
<g id="node15" class="node">
<title>src/Darwin</title>
<polygon fill="lightgrey" stroke="black" points="1117,-36 1022,-36 1022,0 1117,0 1117,-36"/>
<text text-anchor="middle" x="1069.5" y="-14.3" font-family="Times,serif" font-size="14.00">src/Darwin</text>
</g>
<!-- MulleObjCOSFoundation&#45;&gt;src/Darwin -->
<g id="edge12" class="edge">
<title>MulleObjCOSFoundation&#45;&gt;src/Darwin</title>
<path fill="none" stroke="black" d="M1245.04,-71.97C1209.24,-61.16 1163.06,-47.23 1127.06,-36.37"/>
<polygon fill="black" stroke="black" points="1127.77,-32.93 1117.19,-33.39 1125.75,-39.63 1127.77,-32.93"/>
</g>
<!-- src/FreeBSD -->
<g id="node16" class="node">
<title>src/FreeBSD</title>
<polygon fill="lightgrey" stroke="black" points="1242,-36 1135,-36 1135,0 1242,0 1242,-36"/>
<text text-anchor="middle" x="1188.5" y="-14.3" font-family="Times,serif" font-size="14.00">src/FreeBSD</text>
</g>
<!-- MulleObjCOSFoundation&#45;&gt;src/FreeBSD -->
<g id="edge13" class="edge">
<title>MulleObjCOSFoundation&#45;&gt;src/FreeBSD</title>
<path fill="none" stroke="black" d="M1273.86,-71.88C1259.08,-62.72 1240.71,-51.34 1224.8,-41.48"/>
<polygon fill="black" stroke="black" points="1226.59,-38.48 1216.25,-36.19 1222.91,-44.43 1226.59,-38.48"/>
</g>
<!-- src/Linux -->
<g id="node17" class="node">
<title>src/Linux</title>
<polygon fill="lightgrey" stroke="black" points="1343,-36 1260,-36 1260,0 1343,0 1343,-36"/>
<text text-anchor="middle" x="1301.5" y="-14.3" font-family="Times,serif" font-size="14.00">src/Linux</text>
</g>
<!-- MulleObjCOSFoundation&#45;&gt;src/Linux -->
<g id="edge14" class="edge">
<title>MulleObjCOSFoundation&#45;&gt;src/Linux</title>
<path fill="none" stroke="black" d="M1301.5,-71.7C1301.5,-63.98 1301.5,-54.71 1301.5,-46.11"/>
<polygon fill="black" stroke="black" points="1305,-46.1 1301.5,-36.1 1298,-46.1 1305,-46.1"/>
</g>
<!-- src/OSBase -->
<g id="node18" class="node">
<title>src/OSBase</title>
<polygon fill="lightgrey" stroke="black" points="1459.5,-36 1361.5,-36 1361.5,0 1459.5,0 1459.5,-36"/>
<text text-anchor="middle" x="1410.5" y="-14.3" font-family="Times,serif" font-size="14.00">src/OSBase</text>
</g>
<!-- MulleObjCOSFoundation&#45;&gt;src/OSBase -->
<g id="edge15" class="edge">
<title>MulleObjCOSFoundation&#45;&gt;src/OSBase</title>
<path fill="none" stroke="black" d="M1328.16,-71.88C1342.28,-62.81 1359.81,-51.55 1375.06,-41.76"/>
<polygon fill="black" stroke="black" points="1377.21,-44.54 1383.73,-36.19 1373.43,-38.65 1377.21,-44.54"/>
</g>
<!-- src/Posix -->
<g id="node19" class="node">
<title>src/Posix</title>
<polygon fill="lightgrey" stroke="black" points="1557.5,-36 1477.5,-36 1477.5,0 1557.5,0 1557.5,-36"/>
<text text-anchor="middle" x="1517.5" y="-14.3" font-family="Times,serif" font-size="14.00">src/Posix</text>
</g>
<!-- MulleObjCOSFoundation&#45;&gt;src/Posix -->
<g id="edge16" class="edge">
<title>MulleObjCOSFoundation&#45;&gt;src/Posix</title>
<path fill="none" stroke="black" d="M1356.53,-71.94C1386.85,-62.45 1425.39,-50.23 1467.74,-36.21"/>
<polygon fill="black" stroke="black" points="1469.03,-39.47 1477.42,-33 1466.82,-32.83 1469.03,-39.47"/>
</g>
<!-- src/Windows -->
<g id="node20" class="node">
<title>src/Windows</title>
<polygon fill="lightgrey" stroke="black" points="1683,-36 1576,-36 1576,0 1683,0 1683,-36"/>
<text text-anchor="middle" x="1629.5" y="-14.3" font-family="Times,serif" font-size="14.00">src/Windows</text>
</g>
<!-- MulleObjCOSFoundation&#45;&gt;src/Windows -->
<g id="edge17" class="edge">
<title>MulleObjCOSFoundation&#45;&gt;src/Windows</title>
<path fill="none" stroke="black" d="M1394.42,-71.98C1442.81,-62.74 1503.14,-50.65 1565.86,-36.07"/>
<polygon fill="black" stroke="black" points="1567.01,-39.4 1575.94,-33.71 1565.41,-32.58 1567.01,-39.4"/>
</g>
<!-- mulle&#45;http -->
<g id="node11" class="node">
<title>mulle&#45;http</title>
<polygon fill="lightgrey" stroke="black" points="1756,-108 1665,-108 1665,-72 1756,-72 1756,-108"/>
<text text-anchor="middle" x="1710.5" y="-86.3" font-family="Times,serif" font-size="14.00">mulle&#45;http</text>
</g>
<!-- MulleObjCHTTPFoundation&#45;&gt;mulle&#45;http -->
<g id="edge8" class="edge">
<title>MulleObjCHTTPFoundation&#45;&gt;mulle&#45;http</title>
<path fill="none" stroke="black" d="M1710.5,-143.7C1710.5,-135.98 1710.5,-126.71 1710.5,-118.11"/>
<polygon fill="black" stroke="black" points="1714,-118.1 1710.5,-108.1 1707,-118.1 1714,-118.1"/>
</g>
<!-- MulleObjCInetFoundation -->
<g id="node12" class="node">
<title>MulleObjCInetFoundation</title>
<polygon fill="lightgrey" stroke="black" points="1975,-108 1774,-108 1774,-72 1975,-72 1975,-108"/>
<text text-anchor="middle" x="1874.5" y="-86.3" font-family="Times,serif" font-size="14.00">MulleObjCInetFoundation</text>
</g>
<!-- MulleObjCHTTPFoundation&#45;&gt;MulleObjCInetFoundation -->
<g id="edge9" class="edge">
<title>MulleObjCHTTPFoundation&#45;&gt;MulleObjCInetFoundation</title>
<path fill="none" stroke="black" d="M1750.62,-143.88C1773.14,-134.26 1801.42,-122.19 1825.27,-112.01"/>
<polygon fill="black" stroke="black" points="1826.69,-115.21 1834.51,-108.07 1823.94,-108.77 1826.69,-115.21"/>
</g>
<!-- mulle&#45;url -->
<g id="node13" class="node">
<title>mulle&#45;url</title>
<polygon fill="lightgrey" stroke="black" points="1915,-36 1834,-36 1834,0 1915,0 1915,-36"/>
<text text-anchor="middle" x="1874.5" y="-14.3" font-family="Times,serif" font-size="14.00">mulle&#45;url</text>
</g>
<!-- MulleObjCInetFoundation&#45;&gt;mulle&#45;url -->
<g id="edge10" class="edge">
<title>MulleObjCInetFoundation&#45;&gt;mulle&#45;url</title>
<path fill="none" stroke="black" d="M1874.5,-71.7C1874.5,-63.98 1874.5,-54.71 1874.5,-46.11"/>
<polygon fill="black" stroke="black" points="1878,-46.1 1874.5,-36.1 1871,-46.1 1878,-46.1"/>
</g>
</g>
</svg>
